<?xml version="1.0" encoding="UTF-8" standalone="no"?>
<!-- Created with Inkscape (http://www.inkscape.org/) -->

<svg
   xmlns:dc="http://purl.org/dc/elements/1.1/"
   xmlns:cc="http://creativecommons.org/ns#"
   xmlns:rdf="http://www.w3.org/1999/02/22-rdf-syntax-ns#"
   xmlns:svg="http://www.w3.org/2000/svg"
   xmlns="http://www.w3.org/2000/svg"
   xmlns:sodipodi="http://sodipodi.sourceforge.net/DTD/sodipodi-0.dtd"
   xmlns:inkscape="http://www.inkscape.org/namespaces/inkscape"
   id="svg2"
   sodipodi:version="0.32"
   inkscape:version="0.48.2 r9819"
   width="795.3595"
   height="282.77658"
   version="1.0"
   sodipodi:docname="conodle_error.svg"
   inkscape:export-filename="/Users/Oliver/Desktop/error.png"
   inkscape:export-xdpi="47.422596"
   inkscape:export-ydpi="47.422596">
  <defs
     id="defs5" />
  <sodipodi:namedview
     inkscape:window-height="685"
     inkscape:window-width="1342"
     inkscape:pageshadow="2"
     inkscape:pageopacity="0.0"
     guidetolerance="10.0"
     gridtolerance="10.0"
     objecttolerance="10.0"
     borderopacity="1.0"
     bordercolor="#666666"
     pagecolor="#ffffff"
     id="base"
     showgrid="false"
     fit-margin-top="0"
     fit-margin-left="0"
     fit-margin-right="0"
     fit-margin-bottom="0"
     inkscape:zoom="0.83392226"
     inkscape:cx="215.17213"
     inkscape:cy="141.27657"
     inkscape:window-x="0"
     inkscape:window-y="0"
     inkscape:window-maximized="0"
     inkscape:current-layer="svg2" />
  <path
     style="fill:#000000"
     d="m 162.83902,281.0435 c -16.0629,-4.33818 -34.05184,-16.87933 -54.92299,-38.29006 l -11.193482,-11.48286 -4.732539,3.36471 c -5.236265,3.72285 -8.586067,4.14953 -17.581274,2.23945 -8.580941,-1.82212 -16.681551,-6.51395 -23.884054,-13.83351 -5.608838,-5.7 -7.003842,-7.86644 -9.411795,-14.61654 -3.450491,-9.6726 -4.105138,-10.51432 -5.001921,-6.43129 -1.104084,5.02685 0.23555,10.89585 4.456464,19.52397 2.147827,4.39045 3.546353,8.34973 3.107837,8.79841 -1.326744,1.35748 -8.014681,-7.40471 -9.519488,-12.47195 -2.377916,-8.00731 -2.714559,-13.03382 -1.243317,-18.56432 1.346855,-5.06293 1.317319,-5.28762 -0.978598,-7.44453 -1.302053,-1.22321 -3.197227,-4.94899 -4.211497,-8.2795 -1.824902,-5.99235 -1.855955,-6.02613 -2.97849,-3.24038 -2.127454,5.27961 -1.399897,12.97702 1.801899,19.06373 3.088399,5.87114 2.543552,8.24501 -1.140505,4.96913 -3.061559,-2.72235 -5.748755,-9.25969 -5.773794,-14.04634 -0.01208,-2.30911 1.123456,-7.82426 2.523411,-12.25591 2.865285,-9.07023 2.567576,-12.04233 -1.85874,-18.55624 l -2.535575,-3.73144 -2.509256,2.50926 c -1.38009,1.38009 -2.799139,4.24703 -3.153442,6.37098 -1.104588,6.62172 -1.431211,7.13324 -3.1043721,4.86173 -0.8102445,-1.1 -1.2281054,-3.0125 -0.9285799,-4.25 0.2995256,-1.2375 0.817876,-3.37301 1.1518898,-4.74558 0.5940922,-2.44131 0.5099772,-2.48223 -3.8681468,-1.88214 -4.71870195,0.64677 -6.7401325,-0.54665 -4.3233296,-2.55242 0.7665903,-0.63621 4.5724838,-1.90274 8.4575411,-2.81451 6.8296575,-1.60283 7.0399285,-1.74223 6.3451895,-4.20656 -1.777824,-6.30616 -0.751543,-13.38411 3.185346,-21.9684 4.931631,-10.7533 5.086866,-14.44848 0.824229,-19.6198 -4.39864,-5.33631 -4.277935,-8.73434 0.469305,-13.211563 3.522203,-3.321865 3.607929,-3.552573 1.80887,-4.868077 -2.256459,-1.649964 -5.137384,-1.754118 -9.213705,-0.333105 -6.2481961,2.178133 -6.7244994,8.725881 -1.261388,17.340315 3.401834,5.36413 3.037519,7.96449 -0.632762,4.51644 -2.7395984,-2.57372 -2.582938,-2.66165 -4.4825793,2.51583 -0.7911331,2.15623 -2.0631381,4.12866 -2.8266777,4.38317 -1.1233733,0.37446 -1.2308972,-0.37356 -0.5635386,-3.92042 C 3.5887587,111.47243 3.8806737,106.125 3.7838654,102 3.5819898,93.398093 5.3416775,89.396773 10.850374,85.931602 c 2.527057,-1.589611 4.326107,-1.935078 8.00914,-1.537975 l 4.75,0.512143 0,-4.438696 c 0,-4.065418 0.334031,-4.659748 3.971993,-7.067238 5.229013,-3.460397 9.021567,-9.988601 9.049969,-15.577906 0.03224,-6.345594 2.965504,-11.794115 9.075382,-16.857498 2.962924,-2.455437 7.755329,-7.001955 10.649788,-10.103372 5.563987,-5.961822 15.37944,-12.367885 24.352484,-15.893669 2.970211,-1.167086 7.650384,-3.380488 10.400384,-4.918671 6.092345,-3.4076861 8.54488,-4.0178558 18.353346,-4.5661513 4.20566,-0.2350973 13.03663,-1.5648514 19.62439,-2.9550091 C 138.88491,0.4600447 143.83287,0 156.27215,0 c 8.36394,0 16.35307,0.43567421 17.75363,0.96816491 2.18143,0.82937789 2.45954,1.40278039 1.9401,3.99999999 C 175.38087,7.8932177 175.48586,8 178.947,8 c 1.97312,0 5.96687,0.8595563 8.875,1.9101252 2.90813,1.0505688 7.41266,2.2012898 10.01007,2.5571588 7.41125,1.015406 13.28296,5.668613 19.20304,15.21798 9.85353,15.894236 12.7039,17.767665 25.5089,16.765949 7.29491,-0.570671 9.39431,-0.389015 12.49192,1.080896 4.79162,2.27377 6.15663,4.504353 7.62978,12.467891 0.66133,3.575 2.2285,8.525 3.4826,11 1.25409,2.475 3.28429,7.826894 4.51155,11.893098 1.79854,5.958983 2.05857,8.286747 1.34052,12 C 271.5104,95.426894 270.67794,97.5 270.15046,97.5 c -0.52748,0 -1.45867,-2.475 -2.06932,-5.5 -1.46825,-7.273385 -4.57198,-17 -5.42465,-17 -0.37358,0 -1.95065,2.660099 -3.5046,5.91133 l -2.82536,5.911331 5.06231,10.838669 c 2.78426,5.96127 5.31999,12.63867 5.63496,14.83867 0.31496,2.2 -0.035,9.85 -0.77774,17 -0.74271,7.15 -0.97976,13.41251 -0.52678,13.91669 0.49627,0.55236 3.56394,0.39962 7.71855,-0.3843 9.19007,-1.73404 15.61256,-0.74535 19.33426,2.97634 3.37331,3.37332 3.53754,5.6986 0.78372,11.09654 -3.28299,6.43518 -5.27891,4.25992 -3.45228,-3.76247 0.6138,-2.69577 0.34542,-3.40189 -1.83622,-4.83136 -2.21697,-1.45262 -4.05053,-1.56414 -13.85644,-0.8428 l -11.30136,0.83136 -0.32649,2.85436 -0.32649,2.85436 5.0721,-0.6976 c 4.16165,-0.57237 5.18272,-0.40931 5.68836,0.90838 0.92653,2.4145 -1.40184,4.52398 -5.76321,5.22139 l -3.89598,0.62299 3.96577,3.39455 c 4.61139,3.94718 8.38921,11.33788 10.1459,19.84885 2.68315,12.99949 -2.29376,23.63407 -11.54141,24.66148 -4.77948,0.531 -4.37763,-2.42754 0.83853,-6.17351 2.45568,-1.76354 4.7238,-4.17142 5.04025,-5.35084 0.92648,-3.45306 0.68787,-8.64441 -0.39733,-8.64441 -0.55,0 -1,0.52002 -1,1.15561 0,0.63558 -1.1479,2.66058 -2.55089,4.5 -4.61705,6.05326 -7.48594,3.19735 -3.44537,-3.42978 3.1573,-5.17846 2.36407,-22.22583 -1.0342,-22.22583 -0.39019,0 -0.93694,2.01844 -1.21501,4.48543 -0.27806,2.46698 -1.68659,6.89934 -3.13005,9.84967 -1.98974,4.06687 -2.62448,6.89238 -2.62448,11.68266 0,3.47513 -0.49746,9.17506 -1.10547,12.66652 -1.08736,6.24407 -1.24661,6.47894 -9.71769,14.33191 -4.73671,4.3911 -9.13415,7.98381 -9.77208,7.98381 -2.84558,0 -3.56048,-2.72008 -2.34228,-8.91203 1.04716,-5.32266 0.98376,-6.36845 -0.5258,-8.67233 -0.9441,-1.44089 -1.48058,-3.52216 -1.19217,-4.62504 0.62639,-2.39531 -0.8751,-6.7906 -2.31976,-6.7906 -0.56361,0 -1.02475,0.81113 -1.02475,1.80251 0,2.74466 -6.71039,29.65362 -9.65015,38.69749 -6.08859,18.73097 -16.91823,33.76766 -28.18366,39.13233 -7.61505,3.62633 -17.82501,4.14207 -27.93668,1.41117 z m 24.55117,-5.03031 c 12.58764,-5.71318 27.02512,-31.39607 35.42248,-63.01319 2.81216,-10.58816 3.09385,-13.15618 3.55261,-32.38752 0.51229,-21.47512 0.0618,-23.81144 -3.14204,-16.2941 -0.74579,1.74989 -2.57498,4.30662 -4.06489,5.68162 -2.32536,2.14603 -3.65329,2.5 -9.37887,2.5 -5.14691,0 -6.66997,-0.3297 -6.66997,-1.44385 0,-1.12843 1.31075,-1.3841 6,-1.17035 5.80286,0.26451 5.94099,0.21338 4.20404,-1.55615 -0.98778,-1.00631 -2.35936,-2.65492 -3.04796,-3.66359 -1.18249,-1.73212 -1.58052,-1.74815 -7.169,-0.2888 -12.88646,3.36512 -6.87925,-3.74494 9.33297,-11.04641 10.57582,-4.76301 11.69501,-5.54624 10.89696,-7.62593 -0.43258,-1.12728 -2.49605,-0.49853 -9.75965,2.97383 -5.0661,2.42184 -9.67036,4.25025 -10.23171,4.06313 -1.52224,-0.50741 5.99888,-6.13806 12.37784,-9.2666 5.58807,-2.74064 5.58873,-2.74152 5.76098,-7.60812 0.0947,-2.67694 -0.2355,-4.86716 -0.73389,-4.86716 -0.49839,0 -3.27531,-1.62969 -6.17095,-3.62154 l -5.2648,-3.62154 0.64792,4.72709 c 0.35636,2.5999 1.63545,6.48416 2.84243,8.63169 2.40031,4.27077 1.59549,6.58424 -1.90414,5.4735 -2.83202,-0.89885 -5.01482,-6.34124 -6.29588,-15.69759 -1.91599,-13.99359 -7.72157,-18.69149 -21.37056,-17.29311 -6.07726,0.62264 -6.59969,0.50732 -9.12011,-2.0131 -2.33647,-2.33647 -2.63092,-3.32997 -2.33534,-7.879653 0.32825,-5.052365 0.20534,-5.328583 -4.16259,-9.354798 l -4.50082,-4.148714 -3.91441,2.008214 c -4.60413,2.36206 -10.6064,1.980263 -13.76703,-0.875703 -1.11676,-1.00911 -3.08652,-3.91721 -4.37726,-6.462443 C 138.28797,75.432576 128.64219,63.187481 122.63558,57.5 c -2.32345,-2.2 -7.87444,-8.441137 -12.33553,-13.869194 -4.46109,-5.428057 -8.26662,-9.402571 -8.45672,-8.832253 -0.53805,1.614146 5.0746,12.065932 10.04275,18.701447 2.47078,3.3 8.13852,10.05 12.59499,15 4.45646,4.95 9.10165,10.877563 10.32265,13.172361 2.17914,4.095609 2.18858,4.271983 0.51289,9.587892 -0.93891,2.978542 -1.71774,6.72598 -1.73074,8.327639 -0.0181,2.225098 -0.97018,3.612498 -4.03586,5.880908 -4.69398,3.47326 -5.34857,5.39206 -4.51333,13.22987 0.34001,3.19073 0.77559,9.40133 0.96795,13.80133 0.19236,4.4 1.19464,10.475 2.22731,13.5 l 1.87757,5.5 15.5,0.5 c 14.18257,0.4575 15.87624,0.71249 19.92654,3 2.4346,1.375 4.63083,3.12619 4.88051,3.89153 0.48734,1.4938 0.78687,1.53207 -10.30705,-1.31688 -3.3,-0.84745 -11.46516,-1.83948 -18.1448,-2.20451 l -12.1448,-0.6637 -2.67323,4.23468 c -2.13751,3.38604 -4.11639,4.89234 -9.87458,7.51643 -3.96074,1.80497 -7.71048,3.90292 -8.33275,4.66211 -2.25832,2.75522 -9.475539,30.57723 -11.841993,45.65028 -0.656,4.17837 -0.520482,4.44642 6.319673,12.5 9.14068,10.7622 25.89965,26.93861 34.64463,33.44035 17.13229,12.73757 38.1098,18.39477 49.32853,13.3029 z m -10.58434,-24.60264 c -2.85799,-1.42419 -5.19634,-3.04734 -5.19634,-3.60699 0,-0.58496 0.74396,-0.70223 1.75,-0.27585 10.53183,4.4636 16.09001,4.36252 22.74058,-0.41356 C 198.4851,245.40137 200.9584,244 201.59631,244 c 2.58682,0 0.19869,3.69764 -4.3595,6.75 -6.328,4.23751 -12.83103,4.44776 -20.43096,0.66055 z m -8.44912,-10.55777 c 0.61863,-0.61863 5.54108,-1.34333 10.93878,-1.61046 6.62821,-0.32802 12.20197,-1.27733 17.17026,-2.9244 4.04595,-1.3413 7.59757,-2.19742 7.8925,-1.90249 1.11041,1.1104 -2.09825,3.58457 -4.6487,3.58457 -1.46028,0 -3.54268,0.60865 -4.62755,1.35255 -2.56019,1.75551 -28.43295,3.20789 -26.72529,1.50023 z m 7.25278,-5.49459 c 0,-2.16308 19.99729,-6.34068 23.64716,-4.94009 3.01814,1.15817 0.0764,2.33853 -8.64716,3.4697 -4.675,0.6062 -9.9625,1.38051 -11.75,1.72069 -1.7875,0.34018 -3.25,0.22754 -3.25,-0.2503 z m 2.10905,-16.29079 c -0.76445,-0.47246 -1.03276,-1.38182 -0.60969,-2.06636 0.56177,-0.90897 3.35236,-1.04557 10.87933,-0.53253 10.00859,0.68219 10.1515,0.66048 12.56497,-1.90854 l 2.44124,-2.59858 -2.15188,-5.9807 C 199.17923,201.35792 198.99701,200 200.03995,200 c 1.64883,0 5.56956,8.04858 5.56956,11.43334 0,1.35032 -1.08528,3.71773 -2.41173,5.2609 -2.34198,2.72461 -2.72557,2.81171 -13.26283,3.01135 -5.96811,0.11308 -11.46548,-0.17411 -12.21639,-0.63819 z M 137.9435,181.71456 c -1.1913,-0.66801 -3.09734,-2.40232 -4.23564,-3.85403 -2.49256,-3.17886 -1.95399,-3.79924 5.91379,-6.81214 3.01832,-1.15584 6.61286,-2.74862 7.98786,-3.53952 l 2.5,-1.438 -2.73829,-0.0354 c -1.50606,-0.0195 -6.54309,1.53956 -11.1934,3.46456 -9.51882,3.9403 -10.56831,4.13538 -10.56831,1.96443 0,-3.16258 19.22311,-9.42119 29,-9.44175 9.13838,-0.0192 16.19623,2.81355 11.5,4.61566 -0.825,0.31659 -1.5,1.60585 -1.5,2.86503 0,3.10151 -6.25044,8.4966 -9.84367,8.4966 -1.52574,0 -3.64758,-0.66069 -4.7152,-1.4682 -2.59628,-1.96372 -4.42029,-1.89106 -9.48839,0.378 l -4.26566,1.90979 3.90646,1.08463 c 2.14855,0.59654 5.59396,1.08714 7.65646,1.0902 2.0625,0.003 3.75,0.45558 3.75,1.00558 0,1.4123 -11.04993,1.1815 -13.66601,-0.28544 z m -47.776543,47.99886 c 1.87979,-1.21738 3.42337,-2.55092 3.430178,-2.96342 0.01918,-1.16199 -0.98936,-0.89112 -2.570997,0.69052 -0.792285,0.79228 -3.428248,1.7386 -5.857694,2.10291 -3.324955,0.49861 -4.277555,1.02625 -3.852518,2.13388 0.709116,1.84792 4.140901,1.08647 8.851031,-1.96389 z M 225.10951,155 c 1.19344,-1.93102 -0.50232,-2.95607 -3.00435,-1.81606 -1.33812,0.60968 -2.19549,1.49271 -1.90528,1.96229 0.72755,1.17719 4.1548,1.07512 4.90963,-0.14623 z M 100.85405,128.02229 c 3.68524,-2.89881 6.13508,-8.89202 9.75615,-23.86708 2.59125,-10.716159 3.81471,-14.014309 6.21119,-16.743742 2.55406,-2.908915 2.74658,-3.490179 1.33534,-4.031723 -1.88046,-0.721601 -5.99331,2.690808 -8.08334,6.706714 -0.74036,1.422552 -2.52686,7.24454 -3.97002,12.937751 -3.31586,13.08101 -4.8334,16.68864 -8.700989,20.68481 -2.609236,2.69599 -2.901307,3.45539 -1.826874,4.75 1.654909,1.99405 2.251008,1.94473 5.278543,-0.43673 z M 96.092187,103.6116 c 3.582097,-4.696365 5.506713,-10.91789 6.421013,-20.756573 0.57105,-6.145021 1.44768,-9.687495 3.03144,-12.250071 2.00512,-3.244346 2.06205,-3.668807 0.56893,-4.241771 -2.91637,-1.119115 -4.56777,2.061186 -6.609826,12.729331 -3.244399,16.949413 -3.9319,18.883139 -8.570374,24.105814 -2.378121,2.67764 -4.323856,5.22841 -4.323856,5.66838 0,3.21563 5.234181,0.31495 9.482673,-5.25511 z M 198.62857,103.523 c -1.87428,-2.25838 -11.00835,-6.382675 -15.76906,-7.120189 -4.06493,-0.629727 -4.25653,-0.543968 -4.4,1.969411 -0.0825,1.445294 -0.195,3.190308 -0.25,3.877808 -0.0739,0.92418 1.85491,1.165 7.4,0.92391 4.125,-0.17935 8.625,0.12962 10,0.68661 3.57372,1.44765 4.42194,1.35281 3.01906,-0.33755 z M 84.868084,100.25 C 88.502952,96.453256 91.742297,88.714922 96.528976,72.393792 101.01881,57.084816 101.03586,57 99.623914,57 97.972792,57 92.759941,68.406535 88.14183,82.124588 c -3.008252,8.935984 -5.183247,13.749333 -6.954729,15.391087 -2.626326,2.433997 -3.100111,3.628465 -1.91092,4.817655 1.279615,1.27962 2.978173,0.6468 5.591903,-2.08333 z M 228.26079,90.295163 C 225.85358,80.431788 216.44034,61.983331 211.56944,57.582768 207.7879,54.166372 205.59419,53.121403 205.62259,54.75 c 0.007,0.4125 2.26429,4.112231 5.01578,8.221624 2.93026,4.376396 7.10464,12.868817 10.07663,20.5 5.51293,14.155604 6.64721,16.175673 8.20697,14.61592 0.66295,-0.662958 0.44133,-3.274906 -0.66118,-7.792381 z M 77.812404,72.25 C 81.56624,68.244274 84.327792,62.19703 87.052265,52.016561 90.490512,39.168947 87.675904,39.010077 82.68445,51.770021 79.650339,59.526293 75.666105,67.19764 73.37269,69.699119 71.267953,71.994804 71.561816,75 73.891038,75 c 0.739361,0 2.503976,-1.2375 3.921366,-2.75 z M 253.17673,60.506613 C 252.17152,55.148387 247.64608,52 240.94945,52 c -3.95708,0 -5.39134,0.351742 -5.09699,1.25 0.59498,1.815645 17.19172,12.759767 17.60827,11.611141 0.19318,-0.532663 0.0654,-2.4922 -0.284,-4.354528 z m -72.56786,3.19236 C 180.61008,62.184259 173.66744,60 168.85173,60 c -4.97004,0 -16.1209,2.483031 -17.54822,3.907571 -0.4433,0.442437 5.96891,0.756731 14.24936,0.69843 8.28045,-0.0583 15.05565,-0.466463 15.056,-0.907028 z m -9.73795,-11.089889 c 5.42514,0.613786 5.90857,0.512066 5.58369,-1.174897 -0.46499,-2.414507 -6.6442,-3.768368 -13.6533,-2.991431 -8.59218,0.952414 -22.1443,7.207053 -20.69539,9.551434 0.24708,0.399792 5.48393,-0.799496 11.63744,-2.665086 9.56632,-2.900271 12.04918,-3.294573 17.12756,-2.72002 z M 78.824074,44.75 c 8.586151,-10.112666 10.163214,-14.428136 3.382689,-9.256378 -3.71292,2.831982 -9.597249,10.911657 -9.597249,13.177823 0,2.452935 1.728406,1.362295 6.21456,-3.921445 z m 65.785436,-7.282715 c 2.38963,-1.248847 6.66918,-2.009679 13.48954,-2.398213 8.42461,-0.479923 10.0415,-0.841498 10.3212,-2.308068 1.37566,-7.212873 -28.19244,-2.212859 -33.33598,5.637168 -0.93206,1.422513 -1.41526,3.314512 -1.07376,4.204441 0.54025,1.407854 1.04169,1.298202 3.85995,-0.844066 1.78148,-1.354166 4.81405,-3.285234 6.73905,-4.291262 z m -12.22668,-5.515566 c 1.90585,-2.226554 5.0915,-4.814054 7.07922,-5.75 4.31231,-2.030514 4.66615,-3.584387 0.91461,-4.016487 -2.16006,-0.248793 -3.78443,0.736808 -7.75,4.702381 -2.75943,2.759432 -5.01715,5.938577 -5.01715,7.064768 0,2.932103 0.85937,2.571912 4.77332,-2.000662 z m -4.76774,-8.799128 c 3.29693,-3.216074 5.99442,-6.366074 5.99442,-7 0,-3.639318 -9.9228,1.863658 -12.5615,6.966344 C 119.63205,25.857094 119.65113,29 121.08371,29 c 0.29533,0 3.23445,-2.631334 6.53138,-5.847409 z"
     id="path1873"
     inkscape:connector-curvature="0" />
  <metadata
     id="metadata3098">
    <rdf:RDF>
      <cc:Work>
        <dc:format>image/svg+xml</dc:format>
        <dc:type
           rdf:resource="http://purl.org/dc/dcmitype/StillImage" />
        <cc:license
           rdf:resource="http://creativecommons.org/licenses/publicdomain/" />
        <dc:publisher>
          <cc:Agent
             rdf:about="http://openclipart.org/">
            <dc:title>Open Clip Art Library</dc:title>
          </cc:Agent>
        </dc:publisher>
        <dc:title></dc:title>
        <dc:date>2006-11-01T22:22:53</dc:date>
        <dc:description>Young woman with a tired look.</dc:description>
        <dc:source>http://openclipart.org/detail/1164/bad-hair-day-by-fen</dc:source>
        <dc:creator>
          <cc:Agent>
            <dc:title>FEN</dc:title>
          </cc:Agent>
        </dc:creator>
        <dc:subject>
          <rdf:Bag>
            <rdf:li>bad hair day</rdf:li>
            <rdf:li>bad hair day</rdf:li>
            <rdf:li>black</rdf:li>
            <rdf:li>black</rdf:li>
            <rdf:li>cartoon</rdf:li>
            <rdf:li>cartoon</rdf:li>
            <rdf:li>clip art</rdf:li>
            <rdf:li>clipart</rdf:li>
            <rdf:li>face</rdf:li>
            <rdf:li>face</rdf:li>
            <rdf:li>girl</rdf:li>
            <rdf:li>girl</rdf:li>
            <rdf:li>image</rdf:li>
            <rdf:li>line art</rdf:li>
            <rdf:li>line art</rdf:li>
            <rdf:li>media</rdf:li>
            <rdf:li>monochrome</rdf:li>
            <rdf:li>monochrome</rdf:li>
            <rdf:li>people</rdf:li>
            <rdf:li>people</rdf:li>
            <rdf:li>person</rdf:li>
            <rdf:li>person</rdf:li>
            <rdf:li>png</rdf:li>
            <rdf:li>portrait</rdf:li>
            <rdf:li>portrait</rdf:li>
            <rdf:li>public domain</rdf:li>
            <rdf:li>svg</rdf:li>
            <rdf:li>woman</rdf:li>
            <rdf:li>woman</rdf:li>
          </rdf:Bag>
        </dc:subject>
      </cc:Work>
      <cc:License
         rdf:about="http://creativecommons.org/licenses/publicdomain/">
        <cc:permits
           rdf:resource="http://creativecommons.org/ns#Reproduction" />
        <cc:permits
           rdf:resource="http://creativecommons.org/ns#Distribution" />
        <cc:permits
           rdf:resource="http://creativecommons.org/ns#DerivativeWorks" />
      </cc:License>
    </rdf:RDF>
  </metadata>
  <flowRoot
     xml:space="preserve"
     id="flowRoot3100"
     style="font-size:40px;font-style:normal;font-weight:normal;line-height:125%;letter-spacing:0px;word-spacing:0px;fill:#000000;fill-opacity:1;stroke:none;font-family:Sans"
     transform="translate(-8.390486,0)"
     inkscape:export-filename="/Users/Oliver/Desktop/conodeled.png"
     inkscape:export-xdpi="89.751961"
     inkscape:export-ydpi="89.751961"><flowRegion
       id="flowRegion3102"><rect
         id="rect3104"
         width="557.60596"
         height="190.66527"
         x="334.56357"
         y="57.559322" /></flowRegion><flowPara
       id="flowPara3106"
       style="font-size:60px;font-style:normal;font-variant:normal;font-weight:normal;font-stretch:normal;font-family:Hand Of Sean;-inkscape-font-specification:Hand Of Sean">Canoodle's been</flowPara><flowPara
       id="flowPara3108"
       style="font-size:60px;font-style:normal;font-variant:normal;font-weight:normal;font-stretch:normal;font-family:Hand Of Sean;-inkscape-font-specification:Hand Of Sean">knödeled!</flowPara></flowRoot></svg>
