<?xml version="1.0" encoding="UTF-8" standalone="no"?>
<!-- Created with Inkscape (http://www.inkscape.org/) -->

<svg
   xmlns:dc="http://purl.org/dc/elements/1.1/"
   xmlns:cc="http://creativecommons.org/ns#"
   xmlns:rdf="http://www.w3.org/1999/02/22-rdf-syntax-ns#"
   xmlns:svg="http://www.w3.org/2000/svg"
   xmlns="http://www.w3.org/2000/svg"
   xmlns:sodipodi="http://sodipodi.sourceforge.net/DTD/sodipodi-0.dtd"
   xmlns:inkscape="http://www.inkscape.org/namespaces/inkscape"
   id="svg2"
   sodipodi:version="0.32"
   inkscape:version="0.48.2 r9819"
   width="795.3595"
   height="282.77658"
   version="1.0"
   sodipodi:docname="conodle_welcome.svg"
   inkscape:export-filename="/Users/Oliver/Desktop/welcome.png"
   inkscape:export-xdpi="47.422596"
   inkscape:export-ydpi="47.422596">
  <defs
     id="defs5" />
  <sodipodi:namedview
     inkscape:window-height="685"
     inkscape:window-width="1342"
     inkscape:pageshadow="2"
     inkscape:pageopacity="0.0"
     guidetolerance="10.0"
     gridtolerance="10.0"
     objecttolerance="10.0"
     borderopacity="1.0"
     bordercolor="#666666"
     pagecolor="#ffffff"
     id="base"
     showgrid="false"
     fit-margin-top="0"
     fit-margin-left="0"
     fit-margin-right="0"
     fit-margin-bottom="0"
     inkscape:zoom="0.83392226"
     inkscape:cx="215.17213"
     inkscape:cy="141.27657"
     inkscape:window-x="0"
     inkscape:window-y="0"
     inkscape:window-maximized="0"
     inkscape:current-layer="svg2" />
  <metadata
     id="metadata3098">
    <rdf:RDF>
      <cc:Work>
        <dc:format>image/svg+xml</dc:format>
        <dc:type
           rdf:resource="http://purl.org/dc/dcmitype/StillImage" />
        <cc:license
           rdf:resource="http://creativecommons.org/licenses/publicdomain/" />
        <dc:publisher>
          <cc:Agent
             rdf:about="http://openclipart.org/">
            <dc:title>Open Clip Art Library</dc:title>
          </cc:Agent>
        </dc:publisher>
        <dc:title></dc:title>
        <dc:date>2006-11-01T22:22:53</dc:date>
        <dc:description>Young woman with a tired look.</dc:description>
        <dc:source>http://openclipart.org/detail/1164/bad-hair-day-by-fen</dc:source>
        <dc:creator>
          <cc:Agent>
            <dc:title>FEN</dc:title>
          </cc:Agent>
        </dc:creator>
        <dc:subject>
          <rdf:Bag>
            <rdf:li>bad hair day</rdf:li>
            <rdf:li>bad hair day</rdf:li>
            <rdf:li>black</rdf:li>
            <rdf:li>black</rdf:li>
            <rdf:li>cartoon</rdf:li>
            <rdf:li>cartoon</rdf:li>
            <rdf:li>clip art</rdf:li>
            <rdf:li>clipart</rdf:li>
            <rdf:li>face</rdf:li>
            <rdf:li>face</rdf:li>
            <rdf:li>girl</rdf:li>
            <rdf:li>girl</rdf:li>
            <rdf:li>image</rdf:li>
            <rdf:li>line art</rdf:li>
            <rdf:li>line art</rdf:li>
            <rdf:li>media</rdf:li>
            <rdf:li>monochrome</rdf:li>
            <rdf:li>monochrome</rdf:li>
            <rdf:li>people</rdf:li>
            <rdf:li>people</rdf:li>
            <rdf:li>person</rdf:li>
            <rdf:li>person</rdf:li>
            <rdf:li>png</rdf:li>
            <rdf:li>portrait</rdf:li>
            <rdf:li>portrait</rdf:li>
            <rdf:li>public domain</rdf:li>
            <rdf:li>svg</rdf:li>
            <rdf:li>woman</rdf:li>
            <rdf:li>woman</rdf:li>
          </rdf:Bag>
        </dc:subject>
      </cc:Work>
      <cc:License
         rdf:about="http://creativecommons.org/licenses/publicdomain/">
        <cc:permits
           rdf:resource="http://creativecommons.org/ns#Reproduction" />
        <cc:permits
           rdf:resource="http://creativecommons.org/ns#Distribution" />
        <cc:permits
           rdf:resource="http://creativecommons.org/ns#DerivativeWorks" />
      </cc:License>
    </rdf:RDF>
  </metadata>
  <flowRoot
     xml:space="preserve"
     id="flowRoot3100"
     style="font-size:40px;font-style:normal;font-weight:normal;line-height:125%;letter-spacing:0px;word-spacing:0px;fill:#000000;fill-opacity:1;stroke:none;font-family:Sans"
     transform="translate(16.440023,0)"
     inkscape:export-filename="/Users/Oliver/Desktop/conodeled.png"
     inkscape:export-xdpi="89.751961"
     inkscape:export-ydpi="89.751961"><flowRegion
       id="flowRegion3102"><rect
         id="rect3104"
         width="557.60596"
         height="190.66527"
         x="334.56357"
         y="57.559322" /></flowRegion><flowPara
       style="font-size:64px;font-style:normal;font-variant:normal;font-weight:normal;font-stretch:normal;font-family:Hand Of Sean;-inkscape-font-specification:Hand Of Sean"
       id="flowPara3201">Aaah! ...</flowPara><flowPara
       style="font-size:64px;font-style:normal;font-variant:normal;font-weight:normal;font-stretch:normal;font-family:Hand Of Sean;-inkscape-font-specification:Hand Of Sean"
       id="flowPara3205">Canoodle :-)</flowPara></flowRoot>  <path
     id="path1873-7"
     d="M 136.40583,282.02292 C 107.5965,275.63157 86.533889,250.01585 76.610596,223.35949 75.130287,209.62315 58.456222,208.78765 52.761622,196.54009 47.449585,185.13016 41.975426,172.91385 44.146327,159.9516 37.460551,150.95841 40.246909,139.24962 33.967356,129.01987 23.292647,117.07158 35.479436,105.43766 39.20186,93.136148 49.017285,66.963008 63.697714,41.381365 85.722934,23.661491 89.470024,20.62821 109.20545,11.01924 94.146637,14.233862 84.355204,16.134231 75.285357,25.455603 66.405824,25.848149 72.96702,15.588355 86.055557,10.687794 97.812196,9.0732185 c 5.286624,-0.69637 19.381224,-1.517206 6.760984,-3.798753 -5.432991,-2.015783 -25.003998,4.108361 -22.348018,-3.011885 19.284278,-5.263778 42.241758,-1.83437504 55.721818,14.0067645 5.22366,4.153604 13.71083,-2.662762 20.43777,-0.383758 23.47801,0.19796 47.5849,8.866382 62.36524,27.839802 11.91214,14.050987 20.95892,30.218048 32.045,44.886065 1.31823,12.431346 0.25533,25.453696 -4.58501,37.616646 -2.47749,12.71741 -5.71725,25.07457 -6.34645,38.11081 -2.76423,13.99158 -5.67373,30.84145 -15.8653,40.83993 -4.50786,2.47935 -12.80583,0.87715 -12.24946,8.12482 -3.28045,15.08758 -8.19932,30.38834 -19.62138,41.40593 -10.46316,12.24657 -22.28708,25.79677 -39.5613,27.01027 -5.9954,0.90176 -12.14757,1.25244 -18.16026,0.30306 z m 28.5,-11.33765 c 14.25861,-5.53788 23.57863,-18.5638 33.12322,-29.87089 12.02883,-18.21373 12.66385,-41.01711 16.07588,-61.94012 0.9825,-13.52501 4.84578,-27.26548 2.46255,-40.77977 -7.47791,-19.69018 -19.0109,-38.02498 -33.06226,-53.709494 -5.15236,-4.842271 -15.01476,-12.641295 -19.44085,-13.526281 -0.3419,7.875923 8.50245,24.7727 1.11918,27.868401 -4.85057,-6.274532 -3.55026,-26.982957 -7.48735,-26.014789 -1.33813,14.727907 -0.97247,31.005303 -9.55318,43.699543 -8.94321,-2.12846 3.24721,-19.051228 2.87887,-27.172529 1.22639,-8.85905 4.74824,-20.954674 0.31952,-28.074701 -2.65121,17.783191 -4.87924,36.62397 -15.33226,51.87637 -6.38968,-5.03522 5.01674,-22.12581 5.83862,-31.269144 2.80317,-6.142048 3.64773,-19.371836 -2.24927,-6.710767 -6.90837,12.964844 -13.48868,27.351281 -26.13654,35.652191 -1.42679,-7.95491 10.93818,-16.894993 14.25135,-25.658043 2.90135,-4.441691 13.68362,-23.439475 3.46179,-12.261153 -11.90327,13.022794 -23.99602,25.958306 -34.772299,39.937206 5.712949,4.67798 26.631749,-2.95302 26.497019,7.67171 -14.48358,4.55793 -32.5069,-0.0254 -44.044336,12.26998 -4.185552,3.50288 -10.851078,5.73255 -8.449415,12.31928 1.278041,30.97393 4.213347,62.8736 17.459308,91.27347 10.327077,15.02038 20.847353,32.9382 40.253613,36.86424 12.08562,3.19354 25.47405,3.62383 36.78684,-2.44471 z m -30.31541,-44.99546 c -13.89161,-2.75729 11.58097,-0.62047 15.26452,-1.20106 3.85501,-1.36589 18.74295,-4.98987 8.17758,0.73419 -7.66396,1.7457 -15.69525,1.47868 -23.4421,0.46687 z m -20.34945,-7.72867 c -7.79847,-7.75489 9.6634,1.38104 13.63094,-2.82409 17.00942,-0.50347 34.16958,-0.95936 51.1151,-0.25691 -6.32196,6.39102 -23.33489,1.35722 -33.46355,3.25392 -10.42354,0.005 -20.86944,0.34937 -31.28249,-0.17292 z m 24.6273,-22.31159 c -14.61273,-5.33978 -6.20194,-23.10632 -5.74411,-34.25401 -0.28248,-4.95957 5.07858,-20.60183 4.48637,-7.22285 0.046,11.75852 -4.83056,24.49589 -1.59638,35.58348 7.85521,6.78355 19.44388,-0.27515 25.39168,-0.71719 -3.70475,8.54738 -14.87262,8.40492 -22.53756,6.61057 z m 33.53756,-20.35293 c 3.15262,-5.21725 2.80976,4.18512 0,0 z M 98.655824,152.05101 c -11.307912,-5.65797 13.305756,-0.27611 16.750006,-2.39368 -4.01728,4.71579 -11.41102,4.63374 -16.750006,2.39368 z m 69.000006,-2.45649 c -8.17039,-5.2928 12.0822,1.56653 15.89364,-2.20448 12.16642,-0.36099 -11.15004,5.70686 -15.89364,2.20448 z m -66.25001,-5.14454 c -6.602115,0.29849 3.78885,-7.09164 -5.891223,-3.22953 -4.014871,3.59096 -13.39659,3.49479 -4.849526,-1.53602 8.81844,-6.84367 28.603159,-7.33175 31.304399,5.22827 -5.92946,-2.56922 -9.45866,-5.70824 -7.00477,-0.66761 -4.10845,2.38382 -9.21147,1.01837 -13.55888,0.20489 z m 7.4573,-5.8058 c -2.69884,-2.92161 -0.37211,4.74879 0,1e-5 l 0,-1e-5 z m 59.54271,5.89165 c -0.40524,-5.69251 -3.04482,-1.28333 -7.86241,-0.91988 5.32478,-13.41036 26.40771,-11.60054 34.4305,-1.26602 -2.99952,4.9081 -10.895,-7.27595 -14.60009,1.08392 -3.79368,1.12709 -8.12394,3.3593 -11.968,1.10198 z m 6.56973,-5.50139 c -4.26393,-3.25492 1.08664,6.25722 0,0 z m 11.43027,-4.92247 c -5.89107,-5.37712 -17.18275,0.98322 -20.64221,-0.12658 6.76443,-6.57508 23.30151,-4.68384 26.03638,2.53134 -1.86038,-0.65751 -3.59838,-1.59911 -5.39417,-2.40476 z m -96.546198,0.0602 c 6.109105,-6.0452 25.474998,-2.51653 25.640698,-0.0782 -8.31503,-3.69258 -20.368809,-1.66817 -25.640698,0.0782 z m 102.287038,-8.9802 c -8.72527,-4.30124 -27.01664,-0.16289 -30.38544,-7.82097 12.07613,-4.45194 29.03426,-3.67328 37.03688,7.82161 -0.17722,3.10912 -5.07595,0.29179 -6.65144,-6.4e-4 z M 72.398816,205.96329 c -3.518911,-12.3401 -2.910029,-26.06405 -11.320351,-36.57893 -2.85561,-7.62176 -13.61134,-15.56206 -12.440152,-1.90264 0.754439,10.66933 5.472678,21.67836 12.077408,29.93845 3.305449,2.11974 7.805411,10.21234 11.683095,8.54312 z m 150.568524,-4.0153 c 9.22007,-14.20185 16.36632,-31.12693 14.39787,-48.32095 -5.24331,-17.22748 -16.43578,9.27874 -15.88531,17.45737 0.44571,9.7121 -8.81193,26.5375 -0.29387,31.59375 l 1.78131,-0.73018 0,1e-5 z"
     style="fill:#000000"
     inkscape:connector-curvature="0" />
</svg>
